<?xml version="1.0" standalone="no"?>
<!DOCTYPE svg PUBLIC "-//W3C//DTD SVG 20010904//EN"
 "http://www.w3.org/TR/2001/REC-SVG-20010904/DTD/svg10.dtd">
<svg version="1.0" xmlns="http://www.w3.org/2000/svg"
 width="659.000000pt" height="659.000000pt" viewBox="0 0 659.000000 659.000000"
 preserveAspectRatio="xMidYMid meet">
<metadata>
Created by potrace 1.14, written by Peter Selinger 2001-2017
</metadata>
<g transform="translate(0.000000,659.000000) scale(0.100000,-0.100000)"
fill="#000000" stroke="none">
<path d="M2939 6586 c-2 -2 -24 -6 -49 -9 -149 -18 -314 -83 -460 -180 -81
-54 -226 -194 -277 -267 -66 -94 -167 -313 -181 -393 -1 -4 -5 -25 -8 -47 -5
-32 -11 -40 -28 -41 -11 0 -174 -2 -361 -3 -380 -3 -398 -6 -497 -73 -68 -46
-120 -104 -157 -174 -65 -120 -61 -6 -61 -1861 0 -1666 0 -1687 -20 -1725 -36
-70 -48 -129 -45 -221 2 -48 6 -100 9 -115 31 -138 114 -290 226 -413 50 -55
97 -97 325 -289 182 -153 248 -208 261 -220 86 -78 622 -524 642 -534 42 -22
112 -19 156 8 71 44 109 140 84 213 -12 34 -59 79 -244 235 -77 65 -196 165
-265 223 -68 57 -126 107 -129 110 -3 3 -45 39 -95 80 -49 41 -92 77 -95 80
-5 6 -235 199 -285 240 -80 65 -184 181 -210 235 -56 114 -30 216 68 266 34
18 53 21 107 16 36 -3 85 -14 110 -25 25 -11 167 -107 315 -214 329 -237 393
-283 424 -305 13 -10 42 -31 66 -48 23 -16 84 -60 136 -97 104 -73 145 -89
202 -76 54 12 84 34 113 83 34 59 33 101 -9 255 -20 74 -46 169 -57 210 -11
41 -38 140 -59 220 -22 80 -53 197 -70 260 -54 211 -171 646 -211 790 -12 41
-28 102 -36 135 -8 33 -37 141 -64 240 -27 99 -59 216 -70 260 -32 115 -35
168 -16 220 18 46 79 109 124 127 43 17 118 21 157 8 86 -28 131 -95 175 -260
57 -213 91 -345 95 -360 10 -39 137 -511 149 -555 8 -27 26 -93 40 -145 81
-306 78 -299 140 -330 51 -24 113 -25 161 -2 76 37 99 80 101 193 1 68 7 97
24 132 54 107 192 152 300 97 44 -22 98 -83 107 -120 17 -72 73 -137 131 -155
64 -19 166 25 212 93 21 30 25 48 26 111 1 83 14 119 61 163 76 72 182 81 273
23 61 -40 85 -79 115 -190 27 -102 65 -166 115 -192 56 -30 122 -30 175 0 59
33 72 68 74 199 1 65 7 124 15 142 73 175 316 177 400 3 14 -29 39 -104 55
-167 67 -255 90 -339 105 -373 61 -146 260 -145 322 2 20 49 18 68 -27 240
-124 468 -135 495 -239 602 -70 71 -130 110 -219 143 l-56 21 0 1090 -1 1090
-27 68 c-55 140 -143 232 -278 289 -53 22 -61 23 -421 23 -288 0 -368 3 -368
13 0 6 0 13 0 15 0 9 -45 162 -60 205 -91 245 -292 467 -535 591 -83 43 -193
82 -285 101 -54 12 -312 25 -321 16z m261 -365 c189 -43 354 -152 461 -304 45
-64 98 -178 113 -239 6 -25 4 -28 -21 -29 -35 0 -1414 0 -1430 0 -18 1 35 144
83 224 20 34 76 100 123 148 107 105 226 170 367 198 95 20 224 20 304 2z"/>
</g>
</svg>
